<svg width="500" height="115" xmlns="http://www.w3.org/2000/svg" clip-rule="evenodd" fill-rule="evenodd" stroke-linejoin="round" stroke-miterlimit="2">
 <g>
  <title>Layer 1</title>
  <g transform="matrix(2.65777 0 0 2.65777 45.4321 155)" id="svg_1">
   <path d="m58.36434,-25.43423c-6.523,4.814 -15.98,7.374 -24.124,7.374c-11.413,0 -21.691,-4.219 -29.469,-11.242c-0.61,-0.552 -0.066,-1.305 0.668,-0.878c8.391,4.883 18.769,7.824 29.486,7.824c7.23,0 15.178,-1.501 22.491,-4.603c1.103,-0.467 2.028,0.727 0.948,1.525z" fill="#f79c34" id="svg_2"/>
   <path d="m61.07934,-28.53423c-0.835,-1.068 -5.515,-0.506 -7.618,-0.254c-0.637,0.077 -0.736,-0.48 -0.162,-0.883c3.734,-2.623 9.853,-1.866 10.564,-0.987c0.716,0.885 -0.189,7.02 -3.687,9.947c-0.539,0.45 -1.051,0.21 -0.812,-0.384c0.788,-1.967 2.55,-6.369 1.715,-7.439z" fill="#f79c34" id="svg_3"/>
   <g fill="#333e47" id="svg_4">
    <path d="m53.60934,-48.19923l0,-2.548c0.002,-0.388 0.294,-0.646 0.646,-0.645l11.422,-0.001c0.365,0 0.659,0.265 0.659,0.643l0,2.185c-0.004,0.367 -0.313,0.845 -0.86,1.604l-5.917,8.448c2.196,-0.051 4.519,0.278 6.515,1.399c0.45,0.253 0.571,0.628 0.606,0.995l0,2.719c0,0.375 -0.41,0.808 -0.842,0.583c-3.515,-1.842 -8.18,-2.043 -12.068,0.022c-0.397,0.212 -0.812,-0.216 -0.812,-0.591l0,-2.585c0,-0.413 0.008,-1.121 0.425,-1.751l6.854,-9.834l-5.968,-0.001c-0.365,0 -0.658,-0.26 -0.66,-0.642z" id="svg_5"/>
    <path d="m11.94534,-32.28223l-3.475,0c-0.331,-0.021 -0.595,-0.269 -0.622,-0.587l0.003,-17.835c0,-0.356 0.3,-0.641 0.671,-0.641l3.236,-0.001c0.338,0.017 0.61,0.273 0.631,0.599l0,2.328l0.066,0c0.843,-2.252 2.432,-3.303 4.573,-3.303c2.173,0 3.536,1.051 4.509,3.303c0.843,-2.252 2.757,-3.303 4.8,-3.303c1.46,0 3.049,0.601 4.022,1.952c1.103,1.502 0.877,3.678 0.877,5.592l-0.004,11.255c0,0.355 -0.299,0.641 -0.67,0.641l-3.47,0c-0.35,-0.022 -0.624,-0.298 -0.624,-0.64l-0.001,-9.455c0,-0.75 0.065,-2.626 -0.098,-3.339c-0.259,-1.202 -1.037,-1.54 -2.042,-1.54c-0.844,0 -1.72,0.563 -2.077,1.463c-0.357,0.902 -0.324,2.402 -0.324,3.416l0,9.454c0,0.355 -0.3,0.641 -0.67,0.641l-3.471,0c-0.349,-0.022 -0.624,-0.298 -0.624,-0.64l-0.004,-9.455c0,-1.989 0.325,-4.915 -2.14,-4.915c-2.498,0 -2.4,2.851 -2.4,4.915l-0.002,9.454c0,0.355 -0.3,0.641 -0.67,0.641z" id="svg_6"/>
    <path d="m76.20034,-48.08123c-2.562,0 -2.724,3.489 -2.724,5.666s-0.032,6.831 2.693,6.831c2.692,0 2.822,-3.753 2.822,-6.042c0,-1.501 -0.066,-3.303 -0.52,-4.729c-0.389,-1.239 -1.168,-1.726 -2.271,-1.726zm-0.031,-3.641c5.157,0 7.946,4.43 7.946,10.059c0,5.44 -3.081,9.757 -7.946,9.757c-5.061,0 -7.818,-4.429 -7.818,-9.945c0,-5.555 2.789,-9.871 7.818,-9.871z" id="svg_7"/>
    <path d="m90.80434,-32.28223l-3.463,0c-0.347,-0.022 -0.623,-0.298 -0.623,-0.64l-0.006,-17.841c0.03,-0.327 0.318,-0.582 0.668,-0.582l3.223,-0.001c0.304,0.016 0.554,0.222 0.618,0.499l0,2.728l0.065,0c0.974,-2.44 2.335,-3.603 4.735,-3.603c1.557,0 3.082,0.563 4.055,2.102c0.908,1.426 0.908,3.827 0.908,5.554l0,11.223c-0.038,0.316 -0.322,0.561 -0.666,0.561l-3.483,0c-0.322,-0.02 -0.581,-0.257 -0.619,-0.561l0,-9.683c0,-1.952 0.228,-4.805 -2.173,-4.805c-0.843,0 -1.622,0.563 -2.011,1.426c-0.487,1.089 -0.552,2.177 -0.552,3.379l0,9.603c-0.006,0.355 -0.306,0.641 -0.676,0.641z" id="svg_8"/>
    <path d="m48.00634,-32.32623c-0.229,0.206 -0.56,0.22 -0.82,0.081c-1.154,-0.959 -1.361,-1.402 -1.992,-2.316c-1.907,1.943 -3.258,2.526 -5.729,2.526c-2.925,0 -5.201,-1.806 -5.201,-5.416c0,-2.821 1.529,-4.739 3.706,-5.679c1.885,-0.828 4.518,-0.978 6.534,-1.204l0,-0.451c0,-0.829 0.065,-1.805 -0.423,-2.52c-0.423,-0.64 -1.235,-0.903 -1.95,-0.903c-1.326,0 -2.503,0.679 -2.793,2.086c-0.061,0.313 -0.289,0.624 -0.603,0.64l-3.369,-0.365c-0.284,-0.065 -0.6,-0.293 -0.519,-0.727c0.765,-4.029 4.363,-5.285 7.633,-5.319l0.258,0c1.674,0.021 3.812,0.48 5.114,1.729c1.691,1.58 1.527,3.686 1.527,5.981l0,5.413c0,1.629 0.677,2.343 1.312,3.22c0.223,0.317 0.272,0.692 -0.011,0.924c-0.71,0.595 -1.971,1.69 -2.664,2.308l-0.01,-0.008zm-3.502,-8.472c0,1.354 0.032,2.482 -0.65,3.686c-0.553,0.977 -1.431,1.579 -2.406,1.579c-1.332,0 -2.112,-1.015 -2.112,-2.52c0,-2.96 2.654,-3.498 5.168,-3.498l0,0.753z" id="svg_9"/>
    <path d="m2.45534,-32.32623c-0.23,0.206 -0.562,0.22 -0.821,0.081c-1.155,-0.959 -1.362,-1.402 -1.992,-2.316c-1.908,1.943 -3.258,2.526 -5.729,2.526c-2.925,0 -5.201,-1.806 -5.201,-5.416c0,-2.821 1.527,-4.739 3.706,-5.679c1.885,-0.828 4.518,-0.978 6.533,-1.204l0,-0.451c0,-0.829 0.066,-1.805 -0.422,-2.52c-0.423,-0.64 -1.236,-0.903 -1.95,-0.903c-1.326,0 -2.505,0.679 -2.793,2.086c-0.06,0.313 -0.289,0.624 -0.604,0.64l-3.368,-0.365c-0.285,-0.065 -0.601,-0.293 -0.519,-0.727c0.763,-4.029 4.362,-5.285 7.633,-5.319l0.258,0c1.674,0.021 3.812,0.48 5.114,1.729c1.69,1.58 1.527,3.686 1.527,5.981l0,5.413c0,1.629 0.677,2.343 1.312,3.22c0.221,0.317 0.272,0.692 -0.011,0.924c-0.71,0.595 -1.972,1.69 -2.665,2.308l-0.008,-0.008zm-3.504,-8.472c0,1.354 0.033,2.482 -0.65,3.686c-0.552,0.977 -1.43,1.579 -2.406,1.579c-1.332,0 -2.112,-1.015 -2.112,-2.52c0,-2.96 2.655,-3.498 5.168,-3.498l0,0.753z" id="svg_10"/>
    <path d="m148.48534,-25.88423l0,-1.31c0,-0.373 0.183,-0.63 0.572,-0.607c0.726,0.103 1.753,0.206 2.482,0.056c0.952,-0.198 1.635,-0.873 2.039,-1.798c0.569,-1.302 0.946,-2.352 1.184,-3.041l-7.229,-17.908c-0.122,-0.304 -0.158,-0.868 0.449,-0.868l2.527,0c0.482,0 0.678,0.306 0.786,0.606l5.241,14.546l5.003,-14.546c0.102,-0.298 0.307,-0.606 0.785,-0.606l2.383,0c0.603,0 0.569,0.563 0.449,0.868l-7.171,18.467c-0.928,2.458 -2.164,6.373 -4.948,7.053c-1.396,0.365 -3.157,0.233 -4.191,-0.2c-0.261,-0.131 -0.361,-0.481 -0.361,-0.712z" id="svg_11"/>
    <path d="m145.11434,-33.37323c0,0.333 -0.273,0.606 -0.608,0.606l-1.782,0c-0.385,0 -0.648,-0.278 -0.697,-0.606l-0.179,-1.213c-0.819,0.693 -1.824,1.302 -2.914,1.726c-2.096,0.814 -4.512,0.949 -6.56,-0.309c-1.481,-0.909 -2.267,-2.686 -2.267,-4.519c0,-1.418 0.437,-2.824 1.406,-3.845c1.293,-1.395 3.167,-2.08 5.43,-2.08c1.367,0 3.323,0.161 4.746,0.626l0,-2.441c0,-2.482 -1.045,-3.556 -3.8,-3.556c-2.106,0 -3.717,0.318 -5.959,1.015c-0.359,0.012 -0.569,-0.261 -0.569,-0.594l0,-1.392c0,-0.334 0.285,-0.657 0.594,-0.755c1.601,-0.698 3.869,-1.133 6.28,-1.213c3.143,0 6.879,0.709 6.879,5.543l0,13.007zm-3.425,-3.564l0,-3.683c-1.196,-0.327 -3.175,-0.463 -3.941,-0.463c-1.21,0 -2.535,0.286 -3.227,1.031c-0.517,0.546 -0.751,1.33 -0.751,2.088c0,0.98 0.339,1.963 1.131,2.449c0.92,0.625 2.347,0.549 3.688,0.168c1.289,-0.366 2.499,-1.013 3.1,-1.59z" id="svg_12"/>
    <path d="m118.83934,-48.92923c3.954,0 5.031,3.109 5.031,6.669c0.022,2.4 -0.419,4.54 -1.662,5.765c-0.93,0.917 -1.969,1.167 -3.533,1.167c-1.392,0 -3.223,-0.726 -4.591,-1.737l0,-10.179c1.424,-1.094 3.241,-1.685 4.755,-1.685zm-5.361,23.684l-2.387,0c-0.334,0 -0.607,-0.273 -0.607,-0.606l0,-24.871c0,-0.333 0.273,-0.606 0.607,-0.606l1.827,0c0.384,0 0.647,0.278 0.696,0.606l0.192,1.303c1.711,-1.519 3.914,-2.493 6.013,-2.493c5.879,0 7.812,4.844 7.812,9.881c0,5.389 -2.957,9.719 -7.958,9.719c-2.106,0 -4.075,-0.777 -5.589,-2.127l0,8.588c0,0.333 -0.273,0.606 -0.606,0.606z" id="svg_13"/>
   </g>
  </g>
 </g>

</svg>